<svg xmlns="http://www.w3.org/2000/svg" xmlns:xlink="http://www.w3.org/1999/xlink" viewBox="0 0 20 20" width="20" height="20" preserveAspectRatio="xMidYMid meet" style="width: 100%; height: 100%; transform: translate3d(0px, 0px, 0px); content-visibility: visible;"><defs><clipPath id="__lottie_element_10"><rect width="20" height="20" x="0" y="0"></rect></clipPath></defs><g clip-path="url(#__lottie_element_10)"><g transform="matrix(0.05000000074505806,0,0,0.05000000074505806,10,10)" opacity="1" style="display: block;"><g opacity="1" transform="matrix(1,0,0,1,0,0)"><path stroke-linecap="butt" stroke-linejoin="miter" fill-opacity="0" stroke-miterlimit="4" stroke="rgb(0,255,79)" stroke-opacity="1" stroke-width="1" d=" M0,-22 C0,-22 0,-22 0,-22 C7.455999851226807,-22 13.5,-15.956000328063965 13.5,-8.5 C13.5,-8.5 13.5,8.5 13.5,8.5 C13.5,15.956000328063965 7.455999851226807,22 0,22 C0,22 0,22 0,22 C-7.455999851226807,22 -13.5,15.956000328063965 -13.5,8.5 C-13.5,8.5 -13.5,-8.5 -13.5,-8.5 C-13.5,-15.956000328063965 -7.455999851226807,-22 0,-22z"></path></g></g><g transform="matrix(0.05000000074505806,0,0,0.05000000074505806,10,10.049997329711914)" opacity="0.010056000000788856" style="display: none;"><g opacity="1" transform="matrix(1,0,0,1,0,0)"><path stroke-linecap="round" stroke-linejoin="miter" fill-opacity="0" stroke-miterlimit="4" stroke="rgb(0,147,46)" stroke-opacity="1" stroke-width="2" d=" M0,2.674806833267212 C0,2.674806833267212 0,2.700000047683716 0,2.700000047683716"></path></g></g></g></svg>